<?xml version="1.0" encoding="utf-8"?>
<!-- Generator: Adobe Illustrator 23.0.1, SVG Export Plug-In . SVG Version: 6.00 Build 0)  -->
<svg version="1.1" id="Layer_1" xmlns="http://www.w3.org/2000/svg" xmlns:xlink="http://www.w3.org/1999/xlink" x="0px" y="0px"
	 viewBox="0 0 40 40" style="enable-background:new 0 0 40 40;" xml:space="preserve">
<style type="text/css">
	.st0{fill:#009CFF;}
</style>
<g id="XMLID_496_">
	<path id="XMLID_497_" class="st0" d="M0.71,20.2l9.22,3.44l3.57,11.47c0.23,0.73,1.13,1.01,1.72,0.52l5.14-4.19
		c0.54-0.44,1.31-0.46,1.87-0.05l9.27,6.73c0.64,0.46,1.54,0.11,1.7-0.66l6.79-32.65c0.17-0.84-0.65-1.54-1.45-1.23L0.7,18.17
		C-0.24,18.53-0.23,19.85,0.71,20.2z M12.92,21.81l18.01-11.09c0.32-0.2,0.66,0.24,0.38,0.5L16.44,25.03
		c-0.52,0.49-0.86,1.14-0.96,1.84l-0.51,3.75c-0.07,0.5-0.77,0.55-0.91,0.07l-1.95-6.84C11.9,23.07,12.23,22.24,12.92,21.81z"/>
</g>
</svg>
