<?xml version="1.0" encoding="utf-8"?>
<!-- Generator: Adobe Illustrator 23.0.1, SVG Export Plug-In . SVG Version: 6.00 Build 0)  -->
<svg version="1.1" id="Layer_1" xmlns="http://www.w3.org/2000/svg" xmlns:xlink="http://www.w3.org/1999/xlink" x="0px" y="0px"
	 viewBox="0 0 40 40" style="enable-background:new 0 0 40 40;" xml:space="preserve">
<style type="text/css">
	.st0{fill:#009CFF;}
</style>
<path class="st0" d="M34.61,0H5.39C2.41,0,0,2.41,0,5.39v29.22C0,37.59,2.41,40,5.39,40H19.8l0.02-14.29h-3.71
	c-0.48,0-0.87-0.39-0.88-0.87l-0.02-4.61c0-0.49,0.39-0.88,0.88-0.88h3.71v-4.45c0-5.17,3.16-7.98,7.76-7.98h3.78
	c0.48,0,0.88,0.39,0.88,0.88v3.89c0,0.48-0.39,0.88-0.88,0.88l-2.32,0c-2.51,0-2.99,1.19-2.99,2.94v3.85h5.51
	c0.52,0,0.93,0.46,0.87,0.98l-0.55,4.61c-0.05,0.44-0.43,0.77-0.87,0.77h-4.94L26.04,40h8.57c2.98,0,5.39-2.41,5.39-5.39V5.39
	C40,2.41,37.59,0,34.61,0z"/>
</svg>
