<?xml version="1.0" encoding="utf-8"?>
<!-- Generator: Adobe Illustrator 23.0.1, SVG Export Plug-In . SVG Version: 6.00 Build 0)  -->
<svg version="1.1" id="Layer_1" xmlns="http://www.w3.org/2000/svg" xmlns:xlink="http://www.w3.org/1999/xlink" x="0px" y="0px"
	 viewBox="0 0 40 40" style="enable-background:new 0 0 40 40;" xml:space="preserve">
<style type="text/css">
	.st0{fill:#009CFF;}
</style>
<path class="st0" d="M39.36,8.13c-0.89,0.39-1.81,0.71-2.76,0.93c1.04-0.99,1.83-2.23,2.27-3.61l0,0c0.13-0.4-0.3-0.74-0.66-0.53
	l0,0C36.9,5.7,35.48,6.29,34,6.66c-0.09,0.02-0.17,0.03-0.26,0.03c-0.27,0-0.53-0.1-0.74-0.28c-1.58-1.39-3.6-2.15-5.71-2.15
	c-0.91,0-1.83,0.14-2.73,0.42c-2.8,0.87-4.95,3.17-5.63,6.02c-0.25,1.07-0.32,2.14-0.2,3.18c0.01,0.12-0.04,0.2-0.08,0.24
	c-0.06,0.07-0.15,0.11-0.24,0.11c-0.01,0-0.02,0-0.03,0c-6.12-0.57-11.64-3.52-15.54-8.3l0,0C2.64,5.68,2.26,5.71,2.1,5.98l0,0
	c-0.76,1.31-1.17,2.81-1.17,4.34c0,2.34,0.94,4.54,2.57,6.15c-0.69-0.16-1.35-0.42-1.97-0.76l0,0c-0.3-0.17-0.67,0.05-0.67,0.39l0,0
	c-0.04,3.47,1.99,6.56,5.04,7.95c-0.06,0-0.12,0-0.18,0c-0.48,0-0.97-0.05-1.45-0.14l0,0c-0.34-0.06-0.62,0.25-0.51,0.58l0,0
	c0.99,3.09,3.65,5.36,6.83,5.88c-2.64,1.77-5.71,2.71-8.91,2.71l-1,0c-0.31,0-0.57,0.2-0.65,0.5c-0.08,0.29,0.06,0.6,0.33,0.75
	c3.61,2.1,7.72,3.21,11.89,3.21c3.66,0,7.08-0.73,10.16-2.16c2.83-1.31,5.33-3.19,7.44-5.57c1.96-2.22,3.49-4.79,4.55-7.63
	c1.01-2.71,1.55-5.59,1.55-8.35V13.7c0-0.44,0.2-0.86,0.55-1.14c1.32-1.08,2.48-2.34,3.43-3.76l0,0
	C40.17,8.42,39.78,7.95,39.36,8.13L39.36,8.13z"/>
</svg>
